<svg width="48" height="48" viewBox="0 0 48 48" fill="none" xmlns="http://www.w3.org/2000/svg">
<path d="M33.54 37.96H14.46C13.62 37.96 12.86 37.42 12.58 36.64L4.25999 13.34C3.59999 11.48 5.71999 9.89996 7.29999 11.04L15.3 16.76C16.36 17.52 17.88 17.06 18.34 15.84L22.12 5.75996C22.76 4.01996 25.22 4.01996 25.86 5.75996L29.64 15.84C30.1 17.08 31.6 17.52 32.68 16.76L40.68 11.04C42.28 9.89996 44.38 11.5 43.72 13.34L35.4 36.64C35.14 37.42 34.38 37.96 33.54 37.96Z" fill="#FFC300"/>
<path d="M29 29.5H19C18.18 29.5 17.5 28.82 17.5 28C17.5 27.18 18.18 26.5 19 26.5H29C29.82 26.5 30.5 27.18 30.5 28C30.5 28.82 29.82 29.5 29 29.5Z" fill="#005F99"/>
</svg>
