<svg width="68" height="68" viewBox="0 0 68 68" fill="none" xmlns="http://www.w3.org/2000/svg">
<g opacity="0.2">
<path d="M32.7798 41.9664C34.6644 43.7284 37.536 43.7025 39.2161 41.9056L42.6444 38.2386C44.1059 36.6754 43.9648 34.1614 42.3285 32.6316C40.5461 30.9652 39.194 31.1522 37.7059 31.9239L30.1561 35.8993C28.668 36.671 27.3158 36.858 25.5335 35.1916C23.8972 33.6618 23.7561 31.1479 25.2176 29.5846L28.6459 25.9177C30.3259 24.1207 33.1976 24.0949 35.0822 25.8568" stroke="#39FF14" stroke-width="2" stroke-linecap="round" stroke-linejoin="round"/>
<path d="M25.1561 25.7266L42.6875 42.1172" stroke="#39FF14" stroke-width="2" stroke-linecap="round" stroke-linejoin="round"/>
<path d="M52.6291 43.198L44.4338 51.9637C37.6044 59.2685 31.9508 59.4586 24.646 52.6292L15.8803 44.434C8.57559 37.6046 8.38544 31.9509 15.2148 24.6462L23.4101 15.8804C30.2395 8.5757 35.8932 8.38555 43.1979 15.2149L51.9636 23.4102C59.2684 30.2396 59.4585 35.8933 52.6291 43.198Z" stroke="white" stroke-width="2" stroke-linecap="round" stroke-linejoin="round"/>
</g>
</svg>
