<svg width="152" height="152" viewBox="0 0 152 152" fill="none" xmlns="http://www.w3.org/2000/svg">
<g opacity="0.02">
<path d="M76 139.333C67.2389 139.333 59.0056 137.67 51.3 134.343C43.5944 131.016 36.8917 126.504 31.1917 120.808C25.4917 115.113 20.9802 108.41 17.6573 100.7C14.3344 92.9902 12.6709 84.7569 12.6667 76C12.6624 67.2431 14.326 59.0098 17.6573 51.3C20.9887 43.5902 25.5001 36.8875 31.1917 31.1917C36.8832 25.4959 43.586 20.9845 51.3 17.6574C59.014 14.3302 67.2473 12.6667 76 12.6667C84.7527 12.6667 92.986 14.3302 100.7 17.6574C108.414 20.9845 115.117 25.4959 120.808 31.1917C126.5 36.8875 131.013 43.5902 134.349 51.3C137.685 59.0098 139.346 67.2431 139.333 76C139.321 84.7569 137.657 92.9902 134.343 100.7C131.028 108.41 126.517 115.113 120.808 120.808C115.1 126.504 108.397 131.018 100.7 134.349C93.0029 137.68 84.7696 139.342 76 139.333ZM76 126.667C81.7 126.667 87.1889 125.744 92.4667 123.899C97.7444 122.054 102.6 119.388 107.033 115.9L36.1 44.9667C32.6167 49.4 29.9503 54.2556 28.101 59.5334C26.2517 64.8111 25.3291 70.3 25.3333 76C25.3333 90.1445 30.2417 102.125 40.0583 111.942C49.875 121.758 61.8556 126.667 76 126.667ZM115.9 107.033C119.383 102.6 122.05 97.7445 123.899 92.4667C125.748 87.1889 126.671 81.7 126.667 76C126.667 61.8556 121.758 49.875 111.942 40.0584C102.125 30.2417 90.1444 25.3334 76 25.3334C70.3 25.3334 64.8111 26.2559 59.5333 28.101C54.2556 29.9461 49.4 32.6125 44.9667 36.1L115.9 107.033Z" fill="white"/>
</g>
</svg>
