<svg width="91" height="91" viewBox="0 0 91 91" fill="none" xmlns="http://www.w3.org/2000/svg">
<g opacity="0.2">
<path d="M33.9975 64.0549L64.1674 33.885L49.0824 18.8001C43.4256 13.1432 39.6544 13.1432 33.9975 18.8001L18.9126 33.885C13.2557 39.5419 13.2557 43.3131 18.9126 48.97L33.9975 64.0549Z" stroke="white" stroke-width="1.5" stroke-miterlimit="10" stroke-linecap="round" stroke-linejoin="round"/>
<path d="M36.7696 72.5966L34.884 70.711C32.8098 68.6368 32.1121 65.9404 34.884 63.1685L63.1682 34.8842C66.0532 31.9992 68.6365 32.81 70.7107 34.8842L72.5963 36.7698C74.6705 38.844 75.4813 41.4273 72.5963 44.3123L44.312 72.5966C41.5402 75.3684 38.8438 74.6708 36.7696 72.5966Z" stroke="white" stroke-width="1.5" stroke-miterlimit="10" stroke-linecap="round" stroke-linejoin="round"/>
<path d="M59.133 57.7756L69.5416 47.367C70.8804 47.4236 71.9363 48.5172 71.9363 49.8749L71.9363 55.23C71.9363 56.6254 70.7861 57.7756 69.3907 57.7756L59.133 57.7756Z" stroke="#39FF14" stroke-width="1.5" stroke-miterlimit="10" stroke-linecap="round" stroke-linejoin="round"/>
<path d="M47.3854 69.5228L57.7941 59.1142L57.7941 69.372C57.7941 70.7673 56.6438 71.9176 55.2485 71.9176L49.8933 71.9176C48.5357 71.9176 47.442 70.8616 47.3854 69.5228Z" stroke="#39FF14" stroke-width="1.5" stroke-miterlimit="10" stroke-linecap="round" stroke-linejoin="round"/>
<path d="M54.7963 43.2566L45.1042 33.5645C43.5957 32.056 41.0501 32.8291 40.5976 34.9033L39.9942 37.8449C39.7679 38.9008 38.9571 39.7116 37.92 39.919L35.1104 40.4659C33.0363 40.8807 32.2443 43.4452 33.7528 44.9536L43.426 54.6269L54.7963 43.2566Z" stroke="#39FF14" stroke-width="1.5" stroke-miterlimit="10" stroke-linecap="round" stroke-linejoin="round"/>
</g>
</svg>
