<svg width="68" height="68" viewBox="0 0 68 68" fill="none" xmlns="http://www.w3.org/2000/svg">
<g opacity="0.2">
<path d="M42.384 19.8415L19.7566 42.4689L31.0703 53.7826C35.3129 58.0252 38.1413 58.0252 42.384 53.7826L53.6977 42.4689C57.9403 38.2262 57.9403 35.3978 53.6977 31.1552L42.384 19.8415Z" stroke="white" stroke-width="1.5" stroke-miterlimit="10" stroke-linecap="round" stroke-linejoin="round"/>
<path d="M40.3051 13.4351L41.7193 14.8493C43.2749 16.4049 43.7982 18.4272 41.7193 20.5061L20.5061 41.7193C18.3423 43.8831 16.4049 43.275 14.8492 41.7193L13.435 40.3051C11.8794 38.7495 11.2713 36.812 13.435 34.6483L34.6482 13.4351C36.7271 11.3562 38.7494 11.8794 40.3051 13.4351Z" stroke="white" stroke-width="1.5" stroke-miterlimit="10" stroke-linecap="round" stroke-linejoin="round"/>
<path d="M23.5325 24.5508L15.7261 32.3573C14.722 32.3149 13.93 31.4946 13.93 30.4764L13.93 26.46C13.93 25.4135 14.7927 24.5508 15.8392 24.5508L23.5325 24.5508Z" stroke="#39FF14" stroke-width="1.5" stroke-miterlimit="10" stroke-linecap="round" stroke-linejoin="round"/>
<path d="M32.3429 15.74L24.5365 23.5465L24.5365 15.8532C24.5365 14.8066 25.3991 13.944 26.4457 13.944L30.462 13.944C31.4803 13.944 32.3005 14.7359 32.3429 15.74Z" stroke="#39FF14" stroke-width="1.5" stroke-miterlimit="10" stroke-linecap="round" stroke-linejoin="round"/>
<path d="M26.7852 35.4402L34.0543 42.7092C35.1856 43.8406 37.0948 43.2608 37.4342 41.7052L37.8868 39.499C38.0565 38.707 38.6646 38.0989 39.4424 37.9433L41.5496 37.5332C43.1052 37.2221 43.6992 35.2988 42.5678 34.1674L35.3129 26.9125L26.7852 35.4402Z" stroke="#39FF14" stroke-width="1.5" stroke-miterlimit="10" stroke-linecap="round" stroke-linejoin="round"/>
</g>
</svg>
