<svg width="36" height="36" viewBox="0 0 36 36" fill="none" xmlns="http://www.w3.org/2000/svg">
<path d="M29.955 15V27C29.955 31.5 28.455 33 23.955 33H11.955C7.455 33 5.955 31.5 5.955 27V15H29.955Z" fill="#FFC300"/>
<path d="M32.25 10.5V12C32.25 13.65 31.455 15 29.25 15H6.75C4.455 15 3.75 13.65 3.75 12V10.5C3.75 8.85 4.455 7.5 6.75 7.5H29.25C31.455 7.5 32.25 8.85 32.25 10.5Z" fill="#0278C1"/>
<path opacity="0.4" d="M17.46 7.49991H9.18C8.67 6.94491 8.685 6.08991 9.225 5.54991L11.355 3.41991C11.91 2.86491 12.825 2.86491 13.38 3.41991L17.46 7.49991Z" fill="#0278C1"/>
<path opacity="0.4" d="M26.805 7.49991H18.525L22.605 3.41991C23.16 2.86491 24.075 2.86491 24.63 3.41991L26.76 5.54991C27.3 6.08991 27.315 6.94491 26.805 7.49991Z" fill="#0278C1"/>
<path opacity="0.6" d="M13.41 15V22.71C13.41 23.91 14.73 24.615 15.735 23.97L17.145 23.04C17.655 22.71 18.3 22.71 18.795 23.04L20.13 23.94C21.12 24.6 22.455 23.895 22.455 22.695V15H13.41Z" fill="#0278C1"/>
</svg>
