<svg width="240" height="240" viewBox="0 0 240 240" fill="none" xmlns="http://www.w3.org/2000/svg">
<g opacity="0.05">
<path opacity="0.4" d="M147.9 60H92.1C47.9 60 47.9 83.5 47.9 104.2V122.1C47.9 124.3 48.9 126.3 50.6 127.6C52.3 128.9 54.6 129.4 56.7 128.8C61.2 127.6 66.8 127 73.5 127C80.2 127 81.6 127.8 85.6 130.8L94.7 140.4C101.2 147.4 110.5 151.4 120.1 151.4C129.7 151.4 138.9 147.4 145.5 140.4L154.6 130.8C158.6 127.8 160 127 166.7 127C173.4 127 179 127.6 183.5 128.8C185.6 129.4 187.8 128.9 189.6 127.6C191.3 126.3 192.3 124.2 192.3 122.1V104.2C192.1 83.5 192.1 60 147.9 60Z" fill="white"/>
<path d="M142.8 49.5C140.2 52.1 135.9 52.1 133.3 49.5L126.8 43V90.7C126.8 94.4 123.8 97.5 120 97.5C116.2 97.5 113.2 94.5 113.2 90.7V43L106.7 49.5C104.1 52.1 99.8 52.1 97.2 49.5C94.6 46.9 94.6 42.6 97.2 40L115.2 22C115.3 21.9 115.3 21.9 115.4 21.9C116 21.4 116.6 20.9 117.4 20.6C118.3 20.2 119.1 20 120 20C120.9 20 121.7 20.2 122.6 20.5C123.4 20.8 124.2 21.3 124.8 22L142.8 40C145.4 42.6 145.4 46.9 142.8 49.5Z" fill="white"/>
<path d="M186.9 115.3C181.2 113.8 174.5 113 166.5 113C155.4 113 151.3 115.7 145.6 120C145.3 120.2 145 120.5 144.7 120.8L135.2 130.9C127.2 139.3 112.8 139.4 104.8 130.8L95.3 120.8C95 120.5 94.7 120.2 94.4 120C88.7 115.7 84.6 113 73.5 113C65.5 113 58.8 113.8 53.1 115.3C29.3 121.7 29.3 140.6 29.3 157.2V166.5C29.3 191.6 29.3 220 82.8 220H157.2C192.7 220 210.7 202 210.7 166.5V157.2C210.7 140.6 210.7 121.7 186.9 115.3ZM143.3 184H96.7C92.9 184 89.8 180.9 89.8 177C89.8 173.1 92.9 170 96.7 170H143.3C147.1 170 150.2 173.1 150.2 177C150.2 180.9 147.1 184 143.3 184Z" fill="white"/>
<path opacity="0.4" d="M150.2 177C150.2 180.9 147.1 184 143.3 184H96.7C92.9 184 89.8 180.9 89.8 177C89.8 173.1 92.9 170 96.7 170H143.3C147.1 170 150.2 173.1 150.2 177Z" fill="white"/>
</g>
</svg>
