<svg width="64" height="64" viewBox="0 0 64 64" fill="none" xmlns="http://www.w3.org/2000/svg">
<g opacity="0.2">
<path d="M33.4651 55.6664L14.8442 48.3684C8.43862 45.8579 5.82304 39.8706 8.33356 33.465L11.9826 24.1545C14.2304 18.4193 19.3958 15.6535 25.159 17.1174C25.7096 17.2473 26.3087 17.4176 26.886 17.6439L45.5069 24.9419C45.9538 25.1171 46.5237 25.3619 47.0831 25.6886C52.3282 28.4746 54.2872 34.0542 52.0176 39.8453L48.3685 49.1558C45.858 55.5614 39.8707 58.177 33.4651 55.6664ZM25.7913 20.437C25.3444 20.2619 24.9015 20.1312 24.4513 20.0192C20.1504 18.9351 16.4689 20.9292 14.7757 25.2492L11.1267 34.5597C9.2438 39.3639 11.1347 43.6924 15.9389 45.5753L34.5598 52.8733C39.364 54.7562 43.6925 52.8653 45.5754 48.0611L49.2244 38.7506C50.9322 34.3933 49.5561 30.3955 45.612 28.2912C45.1943 28.0416 44.8032 27.8883 44.4122 27.735L25.7913 20.437Z" fill="white"/>
<path d="M24.2393 19.9577C23.7924 19.7826 23.463 19.4172 23.3296 18.9353C23.1809 18.383 23.3626 17.8097 23.7872 17.4391C24.3518 16.93 25.0396 16.4907 25.8358 16.1583L34.2667 12.4597C38.562 10.5988 43.5896 12.5692 45.4765 16.8532L47.4434 21.4262C48.2886 23.3256 48.4113 25.4789 47.7455 27.452C47.5962 27.8875 47.2681 28.2315 46.8421 28.3867C46.416 28.542 45.9367 28.5045 45.5562 28.2695C45.2057 28.0676 44.8219 27.8957 44.4123 27.7352L25.7914 20.4372C25.3444 20.262 24.9016 20.1314 24.4514 20.0194C24.3882 20.0161 24.3138 19.9869 24.2393 19.9577ZM28.4875 18.2716L45.1718 24.8107C45.1779 24.0827 45.0131 23.3522 44.696 22.6265L42.7178 18.0275C41.4989 15.2728 38.2403 13.9956 35.4556 15.1813L28.4875 18.2716Z" fill="white"/>
<path d="M46.7893 49.0739L41.203 46.8845C38.3726 45.7752 36.9799 42.5871 38.0892 39.7567C39.1985 36.9264 42.3866 35.5336 45.2169 36.6429L50.8032 38.8324C51.5667 39.1316 51.9517 40.0128 51.6524 40.7763C51.3532 41.5397 50.472 41.9247 49.7085 41.6255L44.1222 39.4361C42.8374 38.9325 41.3859 39.5666 40.8824 40.8514C40.3788 42.1363 41.0129 43.5877 42.2977 44.0913L47.884 46.2807C48.6475 46.5799 49.0324 47.4612 48.7332 48.2246C48.434 48.9881 47.5528 49.3731 46.7893 49.0739Z" fill="#39FF14"/>
</g>
</svg>
