<svg width="61" height="61" viewBox="0 0 61 61" fill="none" xmlns="http://www.w3.org/2000/svg">
<g opacity="0.2">
<path d="M27.185 53.4341C22.6391 54.8454 17.8887 52.6973 16.6256 48.6288L15.4159 44.7322C15.1728 43.949 15.6206 43.098 16.4038 42.8549C17.1869 42.6118 18.0379 43.0596 18.281 43.8427C19.0223 46.2303 21.8908 47.3083 24.9851 46.3477C28.0794 45.3871 29.8332 42.8741 29.092 40.4865C28.8489 39.7034 29.2967 38.8523 30.0798 38.6092C30.863 38.3661 31.714 38.8139 31.9571 39.597L33.1668 43.4936C34.4299 47.5621 31.7501 52.0169 27.185 53.4341ZM20.5684 49.457C21.895 50.7624 24.1181 51.245 26.2956 50.569C28.4731 49.893 30.026 48.2172 30.3862 46.4091C29.285 47.6515 27.7524 48.6508 25.8805 49.2319C24.0086 49.813 22.1795 49.8573 20.5684 49.457Z" fill="#39FF14"/>
<path d="M24.2498 43.9791C21.1173 44.9516 17.8648 44.3906 15.7648 42.5505C14.8452 41.747 14.1588 40.6827 13.7912 39.4985C13.1685 37.4929 13.466 35.3482 14.6376 33.4558C16.8899 29.7829 22.219 28.1286 26.1685 29.8552C28.2118 30.7706 29.6906 32.3637 30.3132 34.3692C30.6809 35.5535 30.7179 36.8194 30.415 38.0024C29.7454 40.7023 27.3823 43.0066 24.2498 43.9791ZM20.6623 32.4232C19.1724 32.8857 17.9514 33.8092 17.1986 35.0271C16.4854 36.17 16.2946 37.4438 16.6563 38.609C16.8638 39.2775 17.2254 39.8355 17.7471 40.3017C19.0764 41.4806 21.227 41.7972 23.3662 41.1331C25.5055 40.4689 27.0987 38.9902 27.5135 37.2908C27.6853 36.6301 27.6616 35.9463 27.454 35.2778C27.0923 34.1127 26.2136 33.1708 24.9726 32.6137C23.6816 32.0303 22.1521 31.9606 20.6623 32.4232Z" fill="#39FF14"/>
<path d="M25.8806 49.2321C21.1627 50.6968 16.6673 48.7627 15.422 44.7515L13.7913 39.4988C12.5283 35.4304 15.2079 30.9756 19.773 29.5584C21.9314 28.8884 24.2256 28.9929 26.1878 29.8497C28.2311 30.765 29.7099 32.3581 30.3325 34.3637L31.9632 39.6164C33.2084 43.6275 30.5985 47.7675 25.8806 49.2321ZM20.6624 32.4235C17.6827 33.3486 15.8856 36.1263 16.6564 38.6094L18.2871 43.8621C19.0283 46.2497 21.8968 47.3277 24.9912 46.367C28.0855 45.4064 29.8393 42.8934 29.0981 40.5058L27.4674 35.2531C27.1057 34.088 26.227 33.1461 24.986 32.589C23.6818 32.0306 22.1523 31.961 20.6624 32.4235Z" fill="#39FF14"/>
<path d="M45.1436 31.2102C42.2594 32.1056 39.1504 30.7253 38.0673 28.046C37.4223 26.5081 37.5151 24.783 38.3112 23.3003C38.9579 22.0106 40.1421 21.0357 41.5746 20.5909L45.5667 19.3516C47.4755 18.8219 49.3896 19.861 49.9589 21.6947L51.1804 25.6295C51.7497 27.4632 50.7606 29.4036 48.9447 30.0302L45.1436 31.2102ZM46.3988 22.2345L42.4832 23.4501C41.8147 23.6577 41.2806 24.0957 40.9836 24.6905C40.5957 25.3973 40.5536 26.2061 40.8553 26.9082C41.3422 28.1392 42.8789 28.7721 44.2541 28.3451L47.9979 27.1829C48.2462 27.1058 48.4043 26.8055 48.3153 26.519L47.0938 22.5841C47.0048 22.2976 46.7104 22.1588 46.3988 22.2345Z" fill="white"/>
<path d="M43.1624 45.3327L38.3872 46.8152C37.6041 47.0583 36.753 46.6105 36.5099 45.8274C36.2668 45.0442 36.7146 44.1932 37.4977 43.9501L42.2729 42.4676C47.2009 40.9378 49.4004 36.7577 47.8706 31.8297L47.4555 30.4926L45.1442 31.2101C42.26 32.1055 39.1511 30.7252 38.068 28.0459C37.423 26.508 37.5157 24.7829 38.3119 23.3002C38.9586 22.0105 40.1427 21.0356 41.5753 20.5908L44.1157 19.8022L43.7006 18.4651C42.3131 13.9955 38.7416 11.7326 34.3471 12.5524C33.8649 12.6183 33.4638 12.7429 33.0627 12.8674L15.872 18.2042C15.4136 18.3465 14.9861 18.5211 14.5646 18.7148C10.5284 20.5542 8.89863 24.4108 10.2743 28.8422L11.4603 32.6623C11.7034 33.4455 11.2556 34.2965 10.4725 34.5396C9.68934 34.7827 8.8383 34.3349 8.59518 33.5518L7.40923 29.7316C5.58286 23.8486 7.88974 18.4625 13.3051 16.0065C13.7971 15.77 14.3713 15.5289 14.9825 15.3391L32.1732 10.0023C32.6316 9.86001 33.2297 9.69529 33.8705 9.60104C39.7069 8.50119 44.7216 11.6353 46.5657 17.5756L47.4256 20.3453C47.6687 21.1284 47.2209 21.9794 46.4377 22.2226L42.4647 23.456C41.7962 23.6635 41.2621 24.1015 40.9651 24.6963C40.5773 25.4031 40.5351 26.2119 40.8369 26.914C41.3237 28.145 42.8605 28.7779 44.2358 28.3509L47.9986 27.1828C48.7817 26.9396 49.6327 27.3875 49.8759 28.1706L50.7357 30.9402C52.7755 37.5109 49.733 43.2929 43.1624 45.3327Z" fill="white"/>
</g>
</svg>
